<svg width="1080" height="1080" viewBox="0 0 1080 1080" fill="none" xmlns="http://www.w3.org/2000/svg">
<rect width="1080" height="1080" fill="#E3E4E3"/>
<path d="M612.941 51H206.293C182.381 51 163 70.3814 163 94.2926V985.61C163 1009.52 182.381 1028.9 206.293 1028.9H612.941C636.852 1028.9 656.233 1009.52 656.233 985.61V94.2926C656.233 70.3814 636.852 51 612.941 51ZM456.222 144.864H363.034C351.968 144.864 343.021 135.895 343.021 124.852C343.021 113.809 351.991 104.84 363.034 104.84H389.018C389.018 93.4587 398.258 84.2188 409.639 84.2188C421.02 84.2188 430.26 93.4587 430.26 104.84H456.245C467.31 104.84 476.257 113.809 476.257 124.852C476.257 135.895 467.288 144.864 456.245 144.864H456.222Z" fill="#19251C"/>
<path d="M207.046 114.902C208.916 114.902 210.356 115.102 211.368 115.503C212.398 115.884 213.104 116.447 213.486 117.191C213.886 117.936 214.087 118.918 214.087 120.139C214.087 121.17 213.848 122.047 213.371 122.773C212.894 123.498 212.102 124.003 210.996 124.289C212.14 124.557 212.951 125.062 213.428 125.806C213.925 126.551 214.173 127.447 214.173 128.497C214.173 129.718 213.963 130.71 213.543 131.473C213.142 132.218 212.427 132.79 211.396 133.191C210.366 133.591 208.916 133.792 207.046 133.792H199.347V114.902H207.046ZM206.76 131.817C208.153 131.817 209.221 131.693 209.965 131.445C210.709 131.197 211.215 130.844 211.482 130.386C211.749 129.928 211.883 129.298 211.883 128.497C211.883 127.791 211.749 127.199 211.482 126.722C211.215 126.245 210.709 125.864 209.965 125.577C209.221 125.291 208.162 125.148 206.788 125.148H201.608V131.817H206.76ZM206.76 123.23C208.153 123.23 209.212 123.097 209.937 122.83C210.662 122.563 211.148 122.21 211.396 121.771C211.663 121.332 211.797 120.788 211.797 120.139C211.797 119.357 211.663 118.737 211.396 118.279C211.148 117.821 210.662 117.478 209.937 117.249C209.231 117.001 208.172 116.877 206.76 116.877H201.608V123.23H206.76ZM230.72 120.769C230.72 119.949 230.586 119.262 230.319 118.708C230.071 118.155 229.584 117.716 228.859 117.392C228.134 117.048 227.085 116.877 225.711 116.877H220.53V124.662H225.711C227.085 124.662 228.134 124.499 228.859 124.175C229.584 123.832 230.071 123.383 230.319 122.83C230.586 122.276 230.72 121.59 230.72 120.769ZM218.269 114.902H225.968C228.64 114.902 230.481 115.407 231.492 116.419C232.504 117.411 233.009 118.861 233.009 120.769C233.009 122.429 232.628 123.746 231.864 124.719C231.12 125.692 229.775 126.293 227.829 126.522L232.551 133.792H230.061L225.396 126.636H220.53V133.792H218.269V114.902ZM245.208 134.25C243.338 134.25 241.754 133.868 240.457 133.105C239.178 132.342 238.215 131.264 237.566 129.871C236.936 128.478 236.621 126.818 236.621 124.891V114.902H238.911V124.891C238.911 127.18 239.436 128.964 240.485 130.243C241.535 131.502 243.109 132.132 245.208 132.132C247.307 132.132 248.871 131.502 249.902 130.243C250.951 128.964 251.476 127.18 251.476 124.891V114.902H253.765V124.891C253.765 126.818 253.441 128.478 252.792 129.871C252.163 131.264 251.199 132.342 249.902 133.105C248.623 133.868 247.059 134.25 245.208 134.25ZM265.254 117.02V133.792H262.993V117.02H256.381V114.902H271.923V117.02H265.254ZM288.538 133.792L285.905 127.953H276.317L273.684 133.792H271.28L279.866 114.902H282.356L290.943 133.792H288.538ZM285.047 126.007L281.097 117.306L277.204 126.007H285.047Z" fill="#E3E4E3"/>
<path d="M560.42 117.02V133.792H558.159V117.02H551.547V114.902H567.088V117.02H560.42ZM575.127 133.792V124.604L568.429 114.902H570.948L576.243 122.687L581.538 114.902H584.114L577.388 124.604V133.792H575.127ZM594.616 114.902C597.287 114.902 599.128 115.407 600.14 116.419C601.151 117.411 601.657 118.861 601.657 120.769C601.657 122.658 601.151 124.108 600.14 125.119C599.128 126.131 597.287 126.636 594.616 126.636H589.178V133.792H586.917V114.902H594.616ZM589.178 116.877V124.662H594.358C595.732 124.662 596.782 124.499 597.507 124.175C598.232 123.832 598.718 123.383 598.966 122.83C599.233 122.276 599.367 121.59 599.367 120.769C599.367 119.949 599.233 119.262 598.966 118.708C598.718 118.155 598.232 117.716 597.507 117.392C596.782 117.048 595.732 116.877 594.358 116.877H589.178ZM608.016 117.02V122.944H617.576V124.919H608.016V131.674H618.721V133.792H605.755V114.902H618.148V117.02H608.016Z" fill="#E3E4E3"/>
<rect x="177.874" y="947.501" width="177.137" height="55.4397" fill="#19251C"/>
<path d="M205.105 985.985C203.578 985.985 202.3 985.671 201.27 985.041C200.258 984.411 199.505 983.543 199.009 982.436C198.512 981.311 198.264 980.004 198.264 978.515C198.264 977.046 198.512 975.749 199.009 974.623C199.505 973.497 200.258 972.619 201.27 971.99C202.3 971.36 203.578 971.045 205.105 971.045C206.345 971.045 207.385 971.312 208.225 971.847C209.083 972.381 209.761 973.087 210.257 973.965V965.922H212.518V985.671H210.257V983.066C209.761 983.963 209.083 984.678 208.225 985.213C207.385 985.728 206.345 985.985 205.105 985.985ZM200.554 978.515C200.554 980.194 200.945 981.511 201.728 982.465C202.51 983.4 203.664 983.868 205.191 983.868C206.755 983.868 207.986 983.39 208.883 982.436C209.78 981.463 210.228 980.156 210.228 978.515C210.228 976.874 209.78 975.577 208.883 974.623C207.986 973.65 206.755 973.163 205.191 973.163C203.664 973.163 202.51 973.64 201.728 974.594C200.945 975.548 200.554 976.855 200.554 978.515ZM228.208 978.315C228.208 976.598 227.912 975.31 227.32 974.451C226.729 973.573 225.727 973.135 224.315 973.135C223.304 973.135 222.378 973.411 221.539 973.965C220.718 974.499 220.07 975.233 219.593 976.168C219.116 977.103 218.877 978.105 218.877 979.174V985.785H216.616V971.474H218.877V974.451C219.297 973.783 219.745 973.211 220.222 972.734C220.699 972.238 221.3 971.827 222.025 971.503C222.751 971.179 223.581 971.017 224.516 971.017C226.653 971.017 228.179 971.646 229.095 972.906C230.011 974.165 230.469 975.958 230.469 978.286V985.785H228.208V978.315ZM241.519 985.613C241.309 985.671 241.07 985.718 240.803 985.757C240.536 985.795 240.269 985.823 240.002 985.842C238.113 985.919 236.71 985.47 235.794 984.497C234.878 983.524 234.42 981.969 234.42 979.832V965.922H236.682V979.775C236.682 981.358 236.968 982.446 237.54 983.037C238.132 983.61 239.076 983.829 240.374 983.696C240.45 983.677 240.526 983.667 240.603 983.667L241.118 983.581L241.519 985.613ZM252.915 971.36V973.135L244.901 983.553H252.686V985.671H242.067V983.925L250.139 973.478H242.239V971.36H252.915ZM261.677 971.045C262.936 971.045 263.986 971.284 264.825 971.761C265.684 972.238 266.352 972.906 266.829 973.764V971.36H269.09V992.196H266.829V983.266C266.352 984.106 265.684 984.774 264.825 985.27C263.986 985.747 262.936 985.985 261.677 985.985C260.15 985.985 258.872 985.671 257.841 985.041C256.83 984.411 256.076 983.534 255.58 982.408C255.084 981.282 254.836 979.985 254.836 978.515C254.836 977.027 255.084 975.73 255.58 974.623C256.076 973.497 256.83 972.619 257.841 971.99C258.872 971.36 260.15 971.045 261.677 971.045ZM257.126 978.515C257.126 980.175 257.517 981.482 258.299 982.436C259.082 983.39 260.236 983.868 261.763 983.868C263.327 983.868 264.558 983.39 265.455 982.436C266.352 981.463 266.8 980.156 266.8 978.515C266.8 976.874 266.352 975.577 265.455 974.623C264.558 973.65 263.327 973.163 261.763 973.163C260.236 973.163 259.082 973.64 258.299 974.594C257.517 975.529 257.126 976.836 257.126 978.515ZM284.78 978.315C284.78 976.598 284.484 975.31 283.892 974.451C283.301 973.573 282.299 973.135 280.887 973.135C279.876 973.135 278.95 973.411 278.111 973.965C277.29 974.499 276.642 975.233 276.164 976.168C275.687 977.103 275.449 978.105 275.449 979.174V985.785H273.188V971.474H275.449V974.451C275.869 973.783 276.317 973.211 276.794 972.734C277.271 972.238 277.872 971.827 278.597 971.503C279.322 971.179 280.152 971.017 281.087 971.017C283.224 971.017 284.751 971.646 285.667 972.906C286.583 974.165 287.041 975.958 287.041 978.286V985.785H284.78V978.315ZM291.937 985.928C291.498 985.928 291.126 985.776 290.821 985.47C290.515 985.165 290.363 984.793 290.363 984.354C290.363 983.915 290.515 983.553 290.821 983.266C291.126 982.961 291.498 982.809 291.937 982.809C292.357 982.809 292.719 982.961 293.024 983.266C293.349 983.553 293.511 983.915 293.511 984.354C293.511 984.793 293.349 985.165 293.024 985.47C292.719 985.776 292.357 985.928 291.937 985.928ZM301.12 978.143L295.997 971.36H298.459L302.437 976.626L306.415 971.36H308.877L303.782 978.143L309.449 985.671H306.959L302.437 979.689L297.915 985.671H295.425L301.12 978.143ZM318.565 985.671L317.935 987.331C317.763 987.75 317.592 988.17 317.42 988.59C317 989.601 316.599 990.355 316.218 990.851C315.836 991.366 315.331 991.748 314.701 991.996C314.09 992.263 313.279 992.368 312.268 992.311C311.982 992.311 311.667 992.282 311.324 992.225C310.999 992.187 310.713 992.13 310.465 992.053L310.923 990.05L311.524 990.164C311.638 990.164 311.753 990.174 311.867 990.193C312.516 990.269 313.041 990.25 313.442 990.136C313.842 990.04 314.167 989.859 314.415 989.592C314.663 989.325 314.93 988.886 315.216 988.275C315.369 987.951 315.521 987.607 315.674 987.245L316.304 985.671L309.778 971.36H312.068L317.449 983.181L322.829 971.36H325.09L318.565 985.671ZM336.85 971.36V973.135L328.836 983.553H336.621V985.671H326.003V983.925L334.074 973.478H326.174V971.36H336.85Z" fill="#E4E3E3"/>
<path d="M281.611 557.002L366.8 557.002L408.434 564.048L450.708 557.002L535.256 557.002L619.805 571.094L619.805 628.1L197.063 628.1L197.063 571.094L281.611 557.002ZM281.611 614.008L366.159 614.008L366.159 578.78C366.159 574.296 347.584 571.734 323.885 571.094C300.827 571.734 281.611 574.296 281.611 578.78L281.611 614.008ZM535.256 578.78C535.256 574.296 516.681 571.734 492.982 571.094C469.923 571.734 450.708 574.296 450.708 578.78L450.708 614.008L535.256 614.008L535.256 578.78ZM366.8 471.933L451.348 486.025L535.897 486.025L535.897 471.933L619.805 471.933L619.805 500.116L451.348 500.116L451.348 528.94L619.805 528.94L619.805 543.031L197.063 543.031L197.063 486.025L282.252 471.933L366.8 471.933ZM282.252 528.94L366.8 528.94L366.8 493.071C366.8 489.227 347.584 486.025 324.526 486.025C300.827 486.025 282.252 489.227 282.252 493.071L282.252 528.94ZM197.063 400.956L197.063 386.865L535.256 386.865L619.805 400.956L619.805 443.871L535.256 457.962L197.063 457.962L197.063 443.871L492.982 443.871C516.041 443.871 535.256 440.668 535.256 436.825L535.256 408.002C535.256 404.159 516.041 400.956 492.982 400.956L197.063 400.956ZM282.252 301.796L282.252 330.619L619.805 330.619L619.805 344.711L282.252 344.711L282.252 372.893L197.063 372.893L197.063 301.796L282.252 301.796ZM535.256 216.727L619.805 216.727L619.805 230.818L535.256 230.818L535.256 273.733L619.805 273.733L619.805 287.824L535.256 287.824L197.063 266.687L197.063 238.505L535.256 216.727ZM450.708 268.609L450.708 236.583L281.611 246.831L281.611 257.72L450.708 268.609Z" fill="#E3E4E3"/>
<path d="M895.007 548.831H695.476C683.743 548.831 674.233 558.341 674.233 570.074V1007.42C674.233 1019.15 683.743 1028.66 695.476 1028.66H895.007C906.74 1028.66 916.25 1019.15 916.25 1007.42V570.074C916.25 558.341 906.74 548.831 895.007 548.831ZM818.11 594.888H772.385C766.955 594.888 762.565 590.487 762.565 585.069C762.565 579.65 766.966 575.249 772.385 575.249H785.135C785.135 569.665 789.668 565.131 795.253 565.131C800.837 565.131 805.371 569.665 805.371 575.249H818.121C823.55 575.249 827.94 579.65 827.94 585.069C827.94 590.487 823.539 594.888 818.121 594.888H818.11Z" fill="#19251C"/>
<path d="M696.306 579.599C697.207 579.599 697.901 579.696 698.388 579.889C698.884 580.073 699.224 580.344 699.408 580.702C699.601 581.061 699.697 581.534 699.697 582.122C699.697 582.618 699.582 583.041 699.353 583.39C699.123 583.74 698.742 583.983 698.208 584.121C698.76 584.25 699.15 584.493 699.38 584.852C699.619 585.21 699.739 585.642 699.739 586.147C699.739 586.736 699.638 587.214 699.435 587.581C699.242 587.94 698.898 588.215 698.401 588.408C697.905 588.601 697.207 588.698 696.306 588.698H692.598V579.599H696.306ZM696.168 587.747C696.839 587.747 697.354 587.687 697.712 587.567C698.071 587.448 698.314 587.278 698.443 587.057C698.571 586.837 698.636 586.533 698.636 586.147C698.636 585.807 698.571 585.523 698.443 585.293C698.314 585.063 698.071 584.879 697.712 584.741C697.354 584.604 696.844 584.535 696.182 584.535H693.687V587.747H696.168ZM696.168 583.611C696.839 583.611 697.349 583.547 697.698 583.418C698.048 583.289 698.282 583.119 698.401 582.908C698.53 582.697 698.594 582.435 698.594 582.122C698.594 581.745 698.53 581.447 698.401 581.226C698.282 581.006 698.048 580.84 697.698 580.73C697.358 580.61 696.848 580.551 696.168 580.551H693.687V583.611H696.168ZM707.708 582.425C707.708 582.03 707.644 581.699 707.515 581.433C707.396 581.166 707.162 580.955 706.812 580.799C706.463 580.633 705.958 580.551 705.296 580.551H702.801V584.3H705.296C705.958 584.3 706.463 584.222 706.812 584.066C707.162 583.9 707.396 583.685 707.515 583.418C707.644 583.151 707.708 582.821 707.708 582.425ZM701.712 579.599H705.42C706.707 579.599 707.593 579.843 708.081 580.33C708.568 580.808 708.811 581.506 708.811 582.425C708.811 583.225 708.627 583.859 708.26 584.328C707.901 584.797 707.253 585.086 706.316 585.196L708.591 588.698H707.391L705.144 585.251H702.801V588.698H701.712V579.599ZM714.686 588.918C713.786 588.918 713.023 588.735 712.398 588.367C711.782 587.999 711.318 587.48 711.006 586.809C710.703 586.138 710.551 585.339 710.551 584.411V579.599H711.654V584.411C711.654 585.513 711.906 586.373 712.412 586.988C712.917 587.595 713.676 587.898 714.686 587.898C715.697 587.898 716.451 587.595 716.947 586.988C717.453 586.373 717.705 585.513 717.705 584.411V579.599H718.808V584.411C718.808 585.339 718.652 586.138 718.34 586.809C718.036 587.48 717.572 587.999 716.947 588.367C716.332 588.735 715.578 588.918 714.686 588.918ZM724.342 580.62V588.698H723.253V580.62H720.068V579.599H727.554V580.62H724.342ZM735.556 588.698L734.288 585.886H729.67L728.402 588.698H727.244L731.379 579.599H732.579L736.714 588.698H735.556ZM733.875 584.948L731.972 580.757L730.097 584.948H733.875Z" fill="#E3E4E3"/>
<path d="M869.85 580.62V588.698H868.761V580.62H865.577V579.599H873.062V580.62H869.85ZM876.934 588.698V584.273L873.708 579.599H874.921L877.471 583.349L880.021 579.599H881.262L878.023 584.273V588.698H876.934ZM886.32 579.599C887.607 579.599 888.494 579.843 888.981 580.33C889.468 580.808 889.712 581.506 889.712 582.425C889.712 583.335 889.468 584.034 888.981 584.521C888.494 585.008 887.607 585.251 886.32 585.251H883.701V588.698H882.612V579.599H886.32ZM883.701 580.551V584.3H886.196C886.858 584.3 887.364 584.222 887.713 584.066C888.062 583.9 888.296 583.685 888.416 583.418C888.544 583.151 888.609 582.821 888.609 582.425C888.609 582.03 888.544 581.699 888.416 581.433C888.296 581.166 888.062 580.955 887.713 580.799C887.364 580.633 886.858 580.551 886.196 580.551H883.701ZM892.775 580.62V583.473H897.379V584.424H892.775V587.678H897.93V588.698H891.686V579.599H897.655V580.62H892.775Z" fill="#E3E4E3"/>
<path d="M725.253 766.693L721.545 809.072H730.551L726.313 766.693H725.253ZM714.129 913.96H757.038V984.416H708.302L692.939 913.96V702.065L708.302 632.14H743.264L758.627 702.065V887.473C758.627 895.42 752.8 901.776 745.383 901.776C741.675 901.776 738.497 900.187 735.848 898.068C733.199 895.42 732.14 891.711 732.14 887.473V855.159H721.015V899.657H709.361V824.964L716.248 718.487H734.259L743.794 824.964V887.473C743.794 889.592 744.324 890.122 745.383 890.122C746.973 890.122 746.973 888.003 746.973 887.473V727.492C746.973 712.13 741.675 702.595 738.497 702.595H714.129C709.891 702.065 704.594 713.19 704.594 727.492V888.003C704.594 903.366 709.891 913.96 714.129 913.96ZM778.658 984.416L763.295 913.96V808.013V702.065L778.658 632.669H813.62L828.983 702.065V808.013V913.96L813.62 984.416H778.658ZM774.949 888.003C774.949 903.366 780.247 913.96 784.485 913.96H808.323C812.031 913.96 817.328 903.366 817.328 888.003V808.013V727.492C817.328 713.19 812.031 702.595 808.323 702.595H784.485C780.247 702.595 774.949 713.19 774.949 727.492V808.013V888.003ZM802.496 823.905L811.501 823.375V845.094L802.496 899.657H788.723L779.717 845.094V773.05L788.723 718.487H800.907L812.561 773.05V797.418H802.496V793.18C802.496 777.818 799.847 773.58 797.198 773.58H794.02C790.842 773.58 788.723 785.764 788.723 801.126V817.548C788.723 832.91 790.842 845.094 794.02 845.094H797.198C799.847 845.094 802.496 842.446 802.496 827.613V823.905ZM882.917 791.061L872.852 827.613V863.635H882.917V899.657H863.316V827.613H859.078V899.657H850.073V718.487H872.852L882.917 755.039V791.061ZM859.078 755.039V791.061H868.614C871.262 791.061 873.381 783.115 873.381 773.05C873.381 762.985 871.262 755.039 868.614 755.039H859.078ZM849.013 984.416L833.651 913.96V808.013V702.065L849.013 632.669H883.976L899.339 702.065V808.013V913.96L883.976 984.416H849.013ZM845.305 888.003C845.305 903.366 850.603 913.96 854.841 913.96H878.679C882.387 913.96 887.684 903.366 887.684 888.003V808.013V727.492C887.684 713.19 882.387 702.595 878.679 702.595H854.841C850.603 702.595 845.305 713.19 845.305 727.492V808.013V888.003Z" fill="#E3E4E3"/>
<path d="M895.008 51H695.476C683.743 51 674.233 60.5099 674.233 72.2425V509.589C674.233 521.321 683.743 530.831 695.476 530.831H895.008C906.74 530.831 916.25 521.321 916.25 509.589V72.2425C916.25 60.5099 906.74 51 895.008 51ZM818.11 97.0568H772.385C766.955 97.0568 762.565 92.6557 762.565 87.2373C762.565 81.8188 766.966 77.4177 772.385 77.4177H785.135C785.135 71.8334 789.668 67.2996 795.253 67.2996C800.837 67.2996 805.371 71.8334 805.371 77.4177H818.121C823.55 77.4177 827.94 81.8188 827.94 87.2373C827.94 92.6557 823.539 97.0568 818.121 97.0568H818.11Z" fill="#19251C"/>
<path d="M696.307 81.7679C697.207 81.7679 697.901 81.8644 698.388 82.0574C698.884 82.2412 699.224 82.5123 699.408 82.8708C699.601 83.2292 699.698 83.7025 699.698 84.2906C699.698 84.7869 699.583 85.2097 699.353 85.5589C699.123 85.9081 698.742 86.1517 698.209 86.2895C698.76 86.4182 699.151 86.6617 699.381 87.0201C699.62 87.3785 699.739 87.8105 699.739 88.3159C699.739 88.9041 699.638 89.382 699.436 89.7496C699.243 90.108 698.898 90.3837 698.402 90.5767C697.906 90.7697 697.207 90.8662 696.307 90.8662H692.598V81.7679H696.307ZM696.169 89.915C696.84 89.915 697.354 89.8553 697.713 89.7358C698.071 89.6163 698.315 89.4463 698.443 89.2258C698.572 89.0052 698.636 88.7019 698.636 88.3159C698.636 87.9759 698.572 87.691 698.443 87.4613C698.315 87.2315 698.071 87.0477 697.713 86.9098C697.354 86.772 696.844 86.7031 696.183 86.7031H693.687V89.915H696.169ZM696.169 85.7794C696.84 85.7794 697.35 85.7151 697.699 85.5865C698.048 85.4578 698.282 85.2878 698.402 85.0764C698.531 84.865 698.595 84.6031 698.595 84.2906C698.595 83.9138 698.531 83.6152 698.402 83.3946C698.282 83.174 698.048 83.0086 697.699 82.8983C697.359 82.7789 696.849 82.7191 696.169 82.7191H693.687V85.7794H696.169ZM707.709 84.5939C707.709 84.1987 707.645 83.8679 707.516 83.6014C707.396 83.3349 707.162 83.1235 706.813 82.9673C706.464 82.8018 705.958 82.7191 705.296 82.7191H702.801V86.4687H705.296C705.958 86.4687 706.464 86.3906 706.813 86.2344C707.162 86.0689 707.396 85.853 707.516 85.5865C707.645 85.3199 707.709 84.9891 707.709 84.5939ZM701.712 81.7679H705.42C706.707 81.7679 707.594 82.0115 708.081 82.4986C708.568 82.9764 708.812 83.6749 708.812 84.5939C708.812 85.3935 708.628 86.0276 708.26 86.4963C707.902 86.965 707.254 87.2545 706.317 87.3648L708.591 90.8662H707.392L705.145 87.4199H702.801V90.8662H701.712V81.7679ZM714.687 91.0868C713.786 91.0868 713.024 90.903 712.399 90.5354C711.783 90.1678 711.319 89.6485 711.006 88.9776C710.703 88.3067 710.551 87.5072 710.551 86.579V81.7679H711.654V86.579C711.654 87.6818 711.907 88.5411 712.412 89.1568C712.918 89.7634 713.676 90.0667 714.687 90.0667C715.698 90.0667 716.451 89.7634 716.948 89.1568C717.453 88.5411 717.706 87.6818 717.706 86.579V81.7679H718.809V86.579C718.809 87.5072 718.653 88.3067 718.34 88.9776C718.037 89.6485 717.573 90.1678 716.948 90.5354C716.332 90.903 715.578 91.0868 714.687 91.0868ZM724.342 82.788V90.8662H723.253V82.788H720.069V81.7679H727.554V82.788H724.342ZM735.557 90.8662L734.289 88.054H729.671L728.402 90.8662H727.244L731.38 81.7679H732.579L736.715 90.8662H735.557ZM733.875 87.1166L731.973 82.9259L730.098 87.1166H733.875Z" fill="#E3E4E3"/>
<path d="M869.851 82.788V90.8662H868.762V82.788H865.577V81.7679H873.063V82.788H869.851ZM876.934 90.8662V86.4411L873.708 81.7679H874.921L877.472 85.5175L880.022 81.7679H881.263L878.023 86.4411V90.8662H876.934ZM886.321 81.7679C887.608 81.7679 888.494 82.0115 888.981 82.4986C889.469 82.9764 889.712 83.6749 889.712 84.5939C889.712 85.5037 889.469 86.2022 888.981 86.6893C888.494 87.1764 887.608 87.4199 886.321 87.4199H883.702V90.8662H882.613V81.7679H886.321ZM883.702 82.7191V86.4687H886.197C886.859 86.4687 887.364 86.3906 887.713 86.2344C888.062 86.0689 888.297 85.853 888.416 85.5865C888.545 85.3199 888.609 84.9891 888.609 84.5939C888.609 84.1987 888.545 83.8679 888.416 83.6014C888.297 83.3349 888.062 83.1235 887.713 82.9673C887.364 82.8018 886.859 82.7191 886.197 82.7191H883.702ZM892.775 82.788V85.6416H897.379V86.5928H892.775V89.8461H897.931V90.8662H891.686V81.7679H897.655V82.788H892.775Z" fill="#E3E4E3"/>
<path d="M711.187 221.899V243.935H707.515V221.899H696.329V243.935H692.657V221.899L698.166 133.753H705.511L711.187 221.899ZM697.665 199.862H706.012L703.341 155.79H700.503L697.665 199.862ZM733.359 155.79V177.993L731.523 188.844L733.359 199.862V221.899L729.687 243.935H714.829V133.753H729.687L733.359 155.79ZM718.502 155.79V177.826H727.683C728.852 177.826 729.52 172.985 729.687 166.808C729.52 160.798 728.852 155.79 727.683 155.79H718.502ZM727.683 221.899C728.852 221.899 729.52 217.058 729.687 210.881C729.52 204.871 728.852 199.862 727.683 199.862H718.502V221.899H727.683ZM751.859 199.862H755.532V221.899L751.859 243.935H740.674L737.001 221.899V155.79L740.674 133.753H751.859L755.532 155.79V177.826H751.859V166.975C751.859 160.798 751.024 155.956 750.022 155.956H742.677C741.508 155.956 740.674 160.798 740.674 166.975V210.881C740.674 216.891 741.508 221.899 742.677 221.899H750.022C751.024 221.899 751.859 216.891 751.859 210.881V199.862ZM759.173 243.935V133.753H774.031L777.704 155.79V221.899L774.031 243.935H759.173ZM772.194 221.899C773.196 221.899 774.031 216.891 774.031 210.881V166.975C774.031 160.798 773.196 155.79 772.194 155.79H762.846V221.899H772.194ZM799.876 221.899V243.935H781.345V133.753H799.876V155.956H785.018V177.826H796.203V199.862H785.018V221.899H799.876ZM807.19 243.935H803.517V133.753H822.048V155.956H807.19V177.826H818.375V199.862H807.19V243.935ZM844.55 188.844V221.899L840.71 243.935H829.692L825.852 221.899V155.79L829.692 133.753H840.71L844.55 155.79V177.826H840.71V166.975C840.71 160.798 839.875 155.956 838.874 155.956H831.528C830.527 155.956 829.692 160.798 829.692 166.975V210.881C829.692 216.891 830.527 221.899 831.528 221.899H838.874C839.875 221.899 840.71 217.058 840.71 211.048V210.881H835.201V188.844H844.55ZM851.697 243.935H848.024V133.753H851.697V177.826H862.882V133.753H866.555V243.935H862.882V199.862H851.697V243.935ZM888.727 243.935H870.196V221.899H877.709V155.79H870.196V133.753H888.727V155.79H881.382V221.899H888.727V243.935ZM694.994 258.753H711.187V346.899L707.515 368.935H696.329L692.657 346.899V324.862H696.329V335.881C696.329 342.058 697.164 346.899 698.166 346.899H705.678C706.68 346.899 707.515 342.058 707.515 335.881V280.79H694.994V258.753ZM733.359 258.753L727.183 313.844L733.359 368.935H729.186L724.178 324.862H718.502V368.935H714.829V258.753H718.502V302.826H724.178L729.186 258.753H733.359ZM737.001 258.753H740.674V346.732H755.532V368.935H737.001V258.753ZM774.031 368.935V280.79H773.029L770.358 346.899H766.518L763.847 280.79H762.846V368.935H759.173V258.753H766.518L768.355 302.826L770.191 258.753H777.704V368.935H774.031ZM799.876 258.753V368.935H792.53L786.687 280.79H785.185V368.935H781.345V258.753H788.857L794.7 346.899H796.203V258.753H799.876ZM818.375 258.753L822.048 280.79V346.899L818.375 368.935H807.19L803.517 346.899V280.79L807.19 258.753H818.375ZM818.375 291.975C818.375 285.798 817.54 280.79 816.539 280.79H809.026C808.025 280.79 807.19 285.798 807.19 291.975V335.881C807.19 341.891 808.025 346.899 809.026 346.899H816.539C817.54 346.899 818.375 341.891 818.375 335.881V291.975ZM844.22 302.993L840.547 324.862H829.362V368.935H825.689V258.753H840.547L844.22 280.79V302.993ZM829.362 280.956V302.826H838.878C839.879 302.826 840.547 297.985 840.547 291.808C840.547 285.798 839.879 280.956 838.878 280.956H829.362ZM862.719 258.753L866.392 280.79V346.899L862.719 368.935H859.046V385.63H855.374V368.935H851.534L847.861 346.899V280.79L851.534 258.753H862.719ZM862.719 291.975C862.719 285.798 861.884 280.79 860.883 280.79H853.37C852.369 280.79 851.534 285.798 851.534 291.975V335.881C851.534 341.891 852.369 346.899 853.37 346.899H855.374V326.031H859.046V346.899H860.883C861.884 346.899 862.719 341.891 862.719 335.881V291.975ZM888.564 302.993L884.891 325.029V347.066H888.564V368.935H881.219V325.029H873.706V368.935H870.033V258.753H884.891L888.564 280.956V302.993ZM873.706 280.956V302.993H883.055C884.057 302.993 884.891 297.985 884.891 291.975C884.891 285.798 884.057 280.956 883.055 280.956H873.706ZM698.166 404.79C697.164 404.79 696.329 409.798 696.329 415.808C696.329 421.985 697.164 426.826 698.166 426.826H707.515L711.187 448.862V470.899L707.515 492.935H696.329L692.657 470.899V459.714H696.329C696.329 465.891 697.164 470.899 698.166 470.899H705.511C706.68 470.899 707.515 466.058 707.515 459.881C707.515 453.871 706.68 448.862 705.511 448.862H696.329L692.657 426.826V404.79L696.329 382.753H707.515L711.187 404.79V415.808L707.515 415.975C707.515 409.798 706.68 404.79 705.678 404.79H698.166ZM733.359 404.956H725.847V492.935H722.174V404.956H714.829V382.753H733.359V404.956ZM751.859 382.753H755.532V470.899L751.859 492.935H740.674L737.001 470.899V382.753H740.674V459.881C740.674 465.891 741.508 470.899 742.51 470.899H750.022C751.024 470.899 751.859 465.891 751.859 459.881V382.753ZM777.704 382.753V404.79L772.194 492.935H764.682L759.173 404.79V382.753H762.846V404.79L767.019 470.899H769.857L774.031 404.79V382.753H777.704ZM799.876 382.753V448.862L796.036 492.935H792.363L790.527 470.899L788.691 492.935H785.018L781.345 448.862V382.753H785.018V448.862L786.854 470.899L788.691 448.862V404.79H792.363V448.862L794.2 470.899L796.036 448.862V382.753H799.876ZM818.041 404.79L814.702 437.844L818.041 470.899H822.048V492.935H816.539L812.699 456.208L809.026 492.935H803.517V470.899H807.524L810.863 437.844L807.524 404.79H803.517V382.753H809.026L812.699 419.48L816.539 382.753H822.048V404.79H818.041ZM844.22 382.753L836.874 449.029V492.935H833.202V449.029L825.689 382.753H829.362L835.038 432.502L840.547 382.753H844.22ZM866.392 404.79L851.868 470.899H866.392V492.935H847.861V470.899L862.385 404.79H847.861V382.753H866.392V404.79Z" fill="#E3E4E3"/>
</svg>
