<svg width="1080" height="1399" viewBox="0 0 1080 1399" fill="none" xmlns="http://www.w3.org/2000/svg">
<rect width="1080" height="1399" fill="#E3E4E3"/>
<path d="M640.904 26H80.6461C47.7026 26 21 52.7026 21 85.6461V1313.65C21 1346.6 47.7026 1373.3 80.6461 1373.3H640.904C673.847 1373.3 700.55 1346.6 700.55 1313.65V85.6461C700.55 52.7026 673.847 26 640.904 26ZM424.985 155.321H296.596C281.35 155.321 269.024 142.964 269.024 127.749C269.024 112.535 281.381 100.177 296.596 100.177H332.396C332.396 84.4973 345.126 71.767 360.806 71.767C376.486 71.767 389.216 84.4973 389.216 100.177H425.016C440.262 100.177 452.588 112.535 452.588 127.749C452.588 142.964 440.231 155.321 425.016 155.321H424.985Z" fill="#19251C"/>
<path d="M81.741 113.219C84.3173 113.219 86.3021 113.495 87.6954 114.047C89.115 114.573 90.0877 115.348 90.6134 116.374C91.1655 117.399 91.4415 118.753 91.4415 120.435C91.4415 121.855 91.1129 123.064 90.4557 124.063C89.7985 125.062 88.7075 125.759 87.1828 126.153C88.7601 126.521 89.8774 127.218 90.5346 128.243C91.2181 129.268 91.5598 130.504 91.5598 131.95C91.5598 133.632 91.2707 134.999 90.6923 136.051C90.1403 137.076 89.1544 137.864 87.7348 138.417C86.3153 138.969 84.3173 139.245 81.741 139.245H71.1336V113.219H81.741ZM81.3467 136.524C83.2658 136.524 84.7379 136.353 85.7632 136.011C86.7885 135.669 87.4851 135.183 87.8531 134.552C88.2212 133.921 88.4052 133.054 88.4052 131.95C88.4052 130.977 88.2212 130.162 87.8531 129.505C87.4851 128.847 86.7885 128.322 85.7632 127.927C84.7379 127.533 83.2789 127.336 81.3861 127.336H74.2488V136.524H81.3467ZM81.3467 124.694C83.2658 124.694 84.7248 124.51 85.7238 124.142C86.7227 123.774 87.3931 123.287 87.7348 122.683C88.1029 122.078 88.2869 121.329 88.2869 120.435C88.2869 119.357 88.1029 118.503 87.7348 117.872C87.3931 117.241 86.7227 116.768 85.7238 116.452C84.7511 116.111 83.2921 115.94 81.3467 115.94H74.2488V124.694H81.3467ZM114.357 121.303C114.357 120.172 114.173 119.226 113.805 118.463C113.463 117.701 112.793 117.096 111.794 116.65C110.795 116.176 109.349 115.94 107.457 115.94H100.319V126.666H107.457C109.349 126.666 110.795 126.442 111.794 125.995C112.793 125.522 113.463 124.904 113.805 124.142C114.173 123.379 114.357 122.433 114.357 121.303ZM97.204 113.219H107.811C111.492 113.219 114.029 113.916 115.422 115.309C116.815 116.676 117.512 118.674 117.512 121.303C117.512 123.59 116.986 125.404 115.935 126.744C114.909 128.085 113.056 128.913 110.375 129.229L116.881 139.245H113.45L107.023 129.386H100.319V139.245H97.204V113.219ZM134.318 139.876C131.742 139.876 129.56 139.35 127.772 138.298C126.011 137.247 124.684 135.761 123.79 133.842C122.922 131.923 122.488 129.636 122.488 126.981V113.219H125.643V126.981C125.643 130.136 126.366 132.594 127.812 134.355C129.258 136.09 131.427 136.958 134.318 136.958C137.21 136.958 139.366 136.09 140.785 134.355C142.231 132.594 142.954 130.136 142.954 126.981V113.219H146.109V126.981C146.109 129.636 145.662 131.923 144.768 133.842C143.901 135.761 142.573 137.247 140.785 138.298C139.024 139.35 136.868 139.876 134.318 139.876ZM161.937 116.137V139.245H158.822V116.137H149.713V113.219H171.125V116.137H161.937ZM194.017 139.245L190.389 131.2H177.179L173.551 139.245H170.239L182.069 113.219H185.5L197.329 139.245H194.017ZM189.206 128.519L183.764 116.531L178.402 128.519H189.206Z" fill="#E3E4E3"/>
<path d="M568.511 116.137V139.245H565.395V116.137H556.286V113.219H577.699V116.137H568.511ZM588.773 139.245V126.587L579.546 113.219H583.016L590.311 123.945L597.606 113.219H601.155L591.888 126.587V139.245H588.773ZM615.624 113.219C619.305 113.219 621.842 113.916 623.235 115.309C624.628 116.676 625.325 118.674 625.325 121.303C625.325 123.905 624.628 125.903 623.235 127.296C621.842 128.69 619.305 129.386 615.624 129.386H608.132V139.245H605.017V113.219H615.624ZM608.132 115.94V126.666H615.269C617.162 126.666 618.608 126.442 619.607 125.995C620.606 125.522 621.276 124.904 621.618 124.142C621.986 123.379 622.17 122.433 622.17 121.303C622.17 120.172 621.986 119.226 621.618 118.463C621.276 117.701 620.606 117.096 619.607 116.65C618.608 116.176 617.162 115.94 615.269 115.94H608.132ZM634.087 116.137V124.3H647.258V127.02H634.087V136.327H648.835V139.245H630.972V113.219H648.046V116.137H634.087Z" fill="#E3E4E3"/>
<rect x="41.4927" y="1261.15" width="244.049" height="76.3818" fill="#19251C"/>
<path d="M79.0098 1313.35C76.9067 1313.35 75.1453 1312.92 73.7258 1312.05C72.3325 1311.18 71.2941 1309.99 70.6106 1308.46C69.927 1306.91 69.5853 1305.11 69.5853 1303.06C69.5853 1301.03 69.927 1299.25 70.6106 1297.7C71.2941 1296.14 72.3325 1294.94 73.7258 1294.07C75.1453 1293.2 76.9067 1292.77 79.0098 1292.77C80.7185 1292.77 82.1513 1293.13 83.3079 1293.87C84.4909 1294.61 85.4242 1295.58 86.1077 1296.79V1285.71H89.2229V1312.92H86.1077V1309.33C85.4242 1310.56 84.4909 1311.55 83.3079 1312.29C82.1513 1313 80.7185 1313.35 79.0098 1313.35ZM72.7399 1303.06C72.7399 1305.37 73.2788 1307.19 74.3567 1308.5C75.4345 1309.79 77.025 1310.43 79.1281 1310.43C81.2837 1310.43 82.9793 1309.78 84.2149 1308.46C85.4505 1307.12 86.0683 1305.32 86.0683 1303.06C86.0683 1300.8 85.4505 1299.01 84.2149 1297.7C82.9793 1296.35 81.2837 1295.68 79.1281 1295.68C77.025 1295.68 75.4345 1296.34 74.3567 1297.66C73.2788 1298.97 72.7399 1300.77 72.7399 1303.06ZM110.84 1302.78C110.84 1300.42 110.432 1298.64 109.617 1297.46C108.802 1296.25 107.422 1295.65 105.477 1295.65C104.083 1295.65 102.808 1296.03 101.652 1296.79C100.521 1297.52 99.6274 1298.54 98.9702 1299.83C98.313 1301.11 97.9844 1302.49 97.9844 1303.97V1313.07H94.8692V1293.36H97.9844V1297.46C98.5627 1296.54 99.1805 1295.75 99.8377 1295.09C100.495 1294.41 101.323 1293.84 102.322 1293.4C103.321 1292.95 104.465 1292.73 105.753 1292.73C108.697 1292.73 110.8 1293.59 112.062 1295.33C113.324 1297.06 113.955 1299.54 113.955 1302.74V1313.07H110.84V1302.78ZM129.179 1312.84C128.889 1312.92 128.561 1312.98 128.193 1313.04C127.825 1313.09 127.457 1313.13 127.089 1313.15C124.486 1313.26 122.554 1312.64 121.292 1311.3C120.03 1309.96 119.399 1307.82 119.399 1304.87V1285.71H122.514V1304.79C122.514 1306.98 122.909 1308.47 123.697 1309.29C124.512 1310.08 125.814 1310.38 127.601 1310.2C127.706 1310.17 127.812 1310.16 127.917 1310.16L128.627 1310.04L129.179 1312.84ZM144.88 1293.2V1295.65L133.838 1310H144.564V1312.92H129.935V1310.51L141.055 1296.12H130.171V1293.2H144.88ZM156.951 1292.77C158.686 1292.77 160.132 1293.1 161.289 1293.75C162.472 1294.41 163.392 1295.33 164.049 1296.51V1293.2H167.164V1321.91H164.049V1309.6C163.392 1310.76 162.472 1311.68 161.289 1312.36C160.132 1313.02 158.686 1313.35 156.951 1313.35C154.848 1313.35 153.087 1312.92 151.667 1312.05C150.274 1311.18 149.236 1309.97 148.552 1308.42C147.869 1306.87 147.527 1305.08 147.527 1303.06C147.527 1301.01 147.869 1299.22 148.552 1297.7C149.236 1296.14 150.274 1294.94 151.667 1294.07C153.087 1293.2 154.848 1292.77 156.951 1292.77ZM150.682 1303.06C150.682 1305.35 151.22 1307.15 152.298 1308.46C153.376 1309.78 154.967 1310.43 157.07 1310.43C159.225 1310.43 160.921 1309.78 162.157 1308.46C163.392 1307.12 164.01 1305.32 164.01 1303.06C164.01 1300.8 163.392 1299.01 162.157 1297.7C160.921 1296.35 159.225 1295.68 157.07 1295.68C154.967 1295.68 153.376 1296.34 152.298 1297.66C151.22 1298.94 150.682 1300.75 150.682 1303.06ZM188.781 1302.78C188.781 1300.42 188.374 1298.64 187.559 1297.46C186.744 1296.25 185.364 1295.65 183.418 1295.65C182.025 1295.65 180.75 1296.03 179.593 1296.79C178.463 1297.52 177.569 1298.54 176.912 1299.83C176.255 1301.11 175.926 1302.49 175.926 1303.97V1313.07H172.811V1293.36H175.926V1297.46C176.504 1296.54 177.122 1295.75 177.779 1295.09C178.437 1294.41 179.265 1293.84 180.264 1293.4C181.263 1292.95 182.406 1292.73 183.694 1292.73C186.639 1292.73 188.742 1293.59 190.004 1295.33C191.265 1297.06 191.896 1299.54 191.896 1302.74V1313.07H188.781V1302.78ZM198.642 1313.27C198.037 1313.27 197.525 1313.06 197.104 1312.64C196.684 1312.22 196.473 1311.71 196.473 1311.1C196.473 1310.5 196.684 1310 197.104 1309.6C197.525 1309.18 198.037 1308.97 198.642 1308.97C199.22 1308.97 199.72 1309.18 200.141 1309.6C200.587 1310 200.811 1310.5 200.811 1311.1C200.811 1311.71 200.587 1312.22 200.141 1312.64C199.72 1313.06 199.22 1313.27 198.642 1313.27ZM211.295 1302.55L204.236 1293.2H207.628L213.109 1300.46L218.59 1293.2H221.981L214.962 1302.55L222.77 1312.92H219.339L213.109 1304.68L206.878 1312.92H203.448L211.295 1302.55ZM235.329 1312.92L234.461 1315.2C234.224 1315.78 233.988 1316.36 233.751 1316.94C233.173 1318.33 232.621 1319.37 232.095 1320.05C231.569 1320.76 230.873 1321.29 230.005 1321.63C229.164 1322 228.047 1322.14 226.653 1322.07C226.259 1322.07 225.825 1322.03 225.352 1321.95C224.905 1321.89 224.511 1321.82 224.169 1321.71L224.8 1318.95L225.628 1319.11C225.786 1319.11 225.944 1319.12 226.101 1319.15C226.995 1319.25 227.718 1319.23 228.27 1319.07C228.822 1318.94 229.269 1318.69 229.611 1318.32C229.953 1317.95 230.321 1317.35 230.715 1316.51C230.925 1316.06 231.136 1315.59 231.346 1315.09L232.213 1312.92L223.223 1293.2H226.377L233.791 1309.49L241.204 1293.2H244.319L235.329 1312.92ZM260.521 1293.2V1295.65L249.48 1310H260.206V1312.92H245.576V1310.51L256.696 1296.12H245.813V1293.2H260.521Z" fill="#E4E3E3"/>
<path d="M183.63 723.142L300.998 723.142L358.359 732.849L416.602 723.142L533.088 723.142L649.574 742.557L649.574 821.097L67.1433 821.097L67.1433 742.557L183.63 723.142ZM183.63 801.682L300.116 801.682L300.116 753.146C300.116 746.969 274.524 743.439 241.873 742.557C210.104 743.439 183.63 746.969 183.63 753.146L183.63 801.682ZM533.088 753.146C533.088 746.969 507.496 743.439 474.845 742.557C443.076 743.439 416.602 746.969 416.602 753.146L416.602 801.682L533.088 801.682L533.088 753.146ZM300.998 605.939L417.484 625.353L533.97 625.353L533.97 605.939L649.574 605.939L649.574 644.768L417.484 644.768L417.484 684.479L649.574 684.479L649.574 703.893L67.1433 703.893L67.1433 625.353L184.512 605.939L300.998 605.939ZM184.512 684.479L300.998 684.479L300.998 635.061C300.998 629.766 274.524 625.353 242.755 625.353C210.104 625.353 184.512 629.766 184.512 635.061L184.512 684.479ZM67.1433 508.15L67.1433 488.736L533.088 488.736L649.574 508.15L649.574 567.276L533.088 586.69L67.1433 586.69L67.1433 567.276L474.845 567.276C506.614 567.276 533.088 562.863 533.088 557.569L533.088 517.857C533.088 512.563 506.614 508.15 474.845 508.15L67.1433 508.15ZM184.512 371.533L184.512 411.244L649.574 411.244L649.574 430.658L184.512 430.658L184.512 469.487L67.1433 469.487L67.1433 371.533L184.512 371.533ZM533.088 254.33L649.574 254.33L649.574 273.744L533.088 273.744L533.088 332.869L649.574 332.869L649.574 352.284L533.088 352.284L67.1433 323.162L67.1433 284.334L533.088 254.33ZM416.602 325.81L416.602 281.686L183.63 295.806L183.63 310.808L416.602 325.81Z" fill="#E3E4E3"/>
<path d="M1029.52 711.885H754.616C738.452 711.885 725.35 724.987 725.35 741.152V1343.7C725.35 1359.87 738.452 1372.97 754.616 1372.97H1029.52C1045.68 1372.97 1058.79 1359.87 1058.79 1343.7V741.152C1058.79 724.987 1045.68 711.885 1029.52 711.885ZM923.575 775.339H860.577C853.097 775.339 847.048 769.276 847.048 761.81C847.048 754.345 853.112 748.282 860.577 748.282H878.143C878.143 740.588 884.39 734.341 892.083 734.341C899.777 734.341 906.024 740.588 906.024 748.282H923.59C931.07 748.282 937.119 754.345 937.119 761.81C937.119 769.276 931.055 775.339 923.59 775.339H923.575Z" fill="#19251C"/>
<path d="M755.76 754.742C757.001 754.742 757.957 754.875 758.628 755.141C759.312 755.395 759.78 755.768 760.034 756.262C760.299 756.756 760.432 757.408 760.432 758.218C760.432 758.902 760.274 759.484 759.958 759.965C759.641 760.447 759.116 760.782 758.381 760.972C759.141 761.149 759.679 761.485 759.996 761.979C760.325 762.472 760.489 763.068 760.489 763.764C760.489 764.574 760.35 765.233 760.072 765.739C759.806 766.233 759.331 766.613 758.647 766.879C757.963 767.145 757.001 767.278 755.76 767.278H750.651V754.742H755.76ZM755.57 765.967C756.495 765.967 757.204 765.885 757.697 765.72C758.191 765.556 758.527 765.321 758.704 765.017C758.881 764.714 758.97 764.296 758.97 763.764C758.97 763.295 758.881 762.903 758.704 762.586C758.527 762.27 758.191 762.017 757.697 761.827C757.204 761.637 756.501 761.542 755.589 761.542H752.152V765.967H755.57ZM755.57 760.269C756.495 760.269 757.197 760.181 757.678 760.003C758.16 759.826 758.482 759.592 758.647 759.301C758.824 759.009 758.913 758.649 758.913 758.218C758.913 757.699 758.824 757.287 758.647 756.984C758.482 756.68 758.16 756.452 757.678 756.3C757.21 756.135 756.507 756.053 755.57 756.053H752.152V760.269H755.57ZM771.47 758.636C771.47 758.092 771.381 757.636 771.204 757.268C771.039 756.901 770.716 756.61 770.235 756.395C769.754 756.167 769.058 756.053 768.146 756.053H764.708V761.219H768.146C769.058 761.219 769.754 761.111 770.235 760.896C770.716 760.668 771.039 760.371 771.204 760.003C771.381 759.636 771.47 759.18 771.47 758.636ZM763.208 754.742H768.317C770.089 754.742 771.311 755.078 771.982 755.749C772.653 756.408 772.989 757.37 772.989 758.636C772.989 759.738 772.736 760.611 772.229 761.257C771.735 761.903 770.843 762.302 769.551 762.453L772.685 767.278H771.033L767.937 762.529H764.708V767.278H763.208V754.742ZM781.084 767.581C779.843 767.581 778.792 767.328 777.931 766.822C777.083 766.315 776.443 765.6 776.013 764.676C775.595 763.751 775.386 762.65 775.386 761.371V754.742H776.905V761.371C776.905 762.89 777.254 764.074 777.95 764.923C778.646 765.758 779.691 766.176 781.084 766.176C782.476 766.176 783.515 765.758 784.198 764.923C784.895 764.074 785.243 762.89 785.243 761.371V754.742H786.762V761.371C786.762 762.65 786.547 763.751 786.117 764.676C785.699 765.6 785.059 766.315 784.198 766.822C783.35 767.328 782.312 767.581 781.084 767.581ZM794.386 756.148V767.278H792.886V756.148H788.498V754.742H798.811V756.148H794.386ZM809.837 767.278L808.09 763.403H801.727L799.98 767.278H798.385L804.082 754.742H805.735L811.432 767.278H809.837ZM807.52 762.112L804.899 756.338L802.316 762.112H807.52Z" fill="#E3E4E3"/>
<path d="M994.859 756.148V767.278H993.359V756.148H988.972V754.742H999.285V756.148H994.859ZM1004.62 767.278V761.181L1000.17 754.742H1001.85L1005.36 759.908L1008.87 754.742H1010.58L1006.12 761.181V767.278H1004.62ZM1017.55 754.742C1019.32 754.742 1020.55 755.078 1021.22 755.749C1021.89 756.408 1022.22 757.37 1022.22 758.636C1022.22 759.889 1021.89 760.852 1021.22 761.523C1020.55 762.194 1019.32 762.529 1017.55 762.529H1013.94V767.278H1012.44V754.742H1017.55ZM1013.94 756.053V761.219H1017.38C1018.29 761.219 1018.99 761.111 1019.47 760.896C1019.95 760.668 1020.27 760.371 1020.44 760.003C1020.62 759.636 1020.7 759.18 1020.7 758.636C1020.7 758.092 1020.62 757.636 1020.44 757.268C1020.27 756.901 1019.95 756.61 1019.47 756.395C1018.99 756.167 1018.29 756.053 1017.38 756.053H1013.94ZM1026.44 756.148V760.079H1032.79V761.39H1026.44V765.872H1033.55V767.278H1024.94V754.742H1033.17V756.148H1026.44Z" fill="#E3E4E3"/>
<path d="M795.642 1011.83L790.533 1070.22H802.94L797.102 1011.83H795.642ZM780.315 1214.73H839.433V1311.8H772.287L751.122 1214.73V922.791L772.287 826.452H820.457L841.622 922.791V1178.24C841.622 1189.18 833.594 1197.94 823.376 1197.94C818.267 1197.94 813.888 1195.75 810.239 1192.83C806.59 1189.18 805.13 1184.08 805.13 1178.24V1133.72H789.803V1195.02H773.747V1092.11L783.235 945.416H808.049L821.187 1092.11V1178.24C821.187 1181.16 821.916 1181.89 823.376 1181.89C825.566 1181.89 825.566 1178.97 825.566 1178.24V957.824C825.566 936.658 818.267 923.521 813.888 923.521H780.315C774.477 922.791 767.178 938.118 767.178 957.824V1178.97C767.178 1200.13 774.477 1214.73 780.315 1214.73ZM869.219 1311.8L848.054 1214.73V1068.76V922.791L869.219 827.181H917.389L938.555 922.791V1068.76V1214.73L917.389 1311.8H869.219ZM864.111 1178.97C864.111 1200.13 871.409 1214.73 877.248 1214.73H910.091C915.2 1214.73 922.498 1200.13 922.498 1178.97V1068.76V957.824C922.498 938.118 915.2 923.521 910.091 923.521H877.248C871.409 923.521 864.111 938.118 864.111 957.824V1068.76V1178.97ZM902.062 1090.66L914.47 1089.93V1119.85L902.062 1195.02H883.087L870.679 1119.85V1020.59L883.087 945.416H899.873L915.93 1020.59V1054.16H902.062V1048.32C902.062 1027.16 898.413 1021.32 894.764 1021.32H890.385C886.006 1021.32 883.087 1038.11 883.087 1059.27V1081.9C883.087 1103.06 886.006 1119.85 890.385 1119.85H894.764C898.413 1119.85 902.062 1116.2 902.062 1095.76V1090.66ZM1012.86 1045.4L998.995 1095.76V1145.39H1012.86V1195.02H985.858V1095.76H980.019V1195.02H967.612V945.416H998.995L1012.86 995.776V1045.4ZM980.019 995.776V1045.4H993.156C996.805 1045.4 999.725 1034.46 999.725 1020.59C999.725 1006.72 996.805 995.776 993.156 995.776H980.019ZM966.152 1311.8L944.986 1214.73V1068.76V922.791L966.152 827.181H1014.32L1035.49 922.791V1068.76V1214.73L1014.32 1311.8H966.152ZM961.043 1178.97C961.043 1200.13 968.341 1214.73 974.18 1214.73H1007.02C1012.13 1214.73 1019.43 1200.13 1019.43 1178.97V1068.76V957.824C1019.43 938.118 1012.13 923.521 1007.02 923.521H974.18C968.341 923.521 961.043 938.118 961.043 957.824V1068.76V1178.97Z" fill="#E3E4E3"/>
<path d="M1029.52 26H754.616C738.452 26 725.35 39.1023 725.35 55.2668V657.818C725.35 673.983 738.452 687.085 754.616 687.085H1029.52C1045.68 687.085 1058.79 673.983 1058.79 657.818V55.2668C1058.79 39.1023 1045.68 26 1029.52 26ZM923.575 89.4546H860.577C853.097 89.4546 847.048 83.3909 847.048 75.9257C847.048 68.4605 853.112 62.3969 860.577 62.3969H878.143C878.143 54.7031 884.39 48.4567 892.084 48.4567C899.777 48.4567 906.024 54.7031 906.024 62.3969H923.59C931.07 62.3969 937.119 68.4605 937.119 75.9257C937.119 83.3909 931.055 89.4546 923.59 89.4546H923.575Z" fill="#19251C"/>
<path d="M755.761 68.8575C757.002 68.8575 757.957 68.9904 758.629 69.2563C759.312 69.5096 759.781 69.8831 760.034 70.3769C760.3 70.8707 760.433 71.5228 760.433 72.3331C760.433 73.0168 760.275 73.5993 759.958 74.0804C759.641 74.5616 759.116 74.8971 758.382 75.087C759.141 75.2643 759.679 75.5998 759.996 76.0936C760.325 76.5875 760.49 77.1826 760.49 77.879C760.49 78.6893 760.351 79.3477 760.072 79.8542C759.806 80.348 759.331 80.7278 758.648 80.9937C757.964 81.2596 757.002 81.3926 755.761 81.3926H750.652V68.8575H755.761ZM755.571 80.0821C756.495 80.0821 757.204 79.9998 757.698 79.8352C758.192 79.6706 758.527 79.4363 758.705 79.1325C758.882 78.8286 758.97 78.4107 758.97 77.879C758.97 77.4105 758.882 77.018 758.705 76.7014C758.527 76.3849 758.192 76.1316 757.698 75.9417C757.204 75.7518 756.501 75.6568 755.59 75.6568H752.152V80.0821H755.571ZM755.571 74.3843C756.495 74.3843 757.198 74.2957 757.679 74.1184C758.16 73.9412 758.483 73.7069 758.648 73.4157C758.825 73.1245 758.913 72.7636 758.913 72.3331C758.913 71.814 758.825 71.4025 758.648 71.0986C758.483 70.7947 758.16 70.5668 757.679 70.4149C757.21 70.2503 756.508 70.168 755.571 70.168H752.152V74.3843H755.571ZM771.47 72.751C771.47 72.2065 771.381 71.7507 771.204 71.3835C771.04 71.0163 770.717 70.7251 770.236 70.5098C769.754 70.2819 769.058 70.168 768.146 70.168H764.709V75.3339H768.146C769.058 75.3339 769.754 75.2263 770.236 75.0111C770.717 74.7832 771.04 74.4856 771.204 74.1184C771.381 73.7512 771.47 73.2954 771.47 72.751ZM763.208 68.8575H768.317C770.09 68.8575 771.312 69.193 771.983 69.8641C772.654 70.5225 772.989 71.4848 772.989 72.751C772.989 73.8525 772.736 74.7262 772.23 75.3719C771.736 76.0177 770.843 76.4165 769.552 76.5685L772.686 81.3926H771.033L767.937 76.6444H764.709V81.3926H763.208V68.8575ZM781.084 81.6965C779.843 81.6965 778.792 81.4432 777.931 80.9368C777.083 80.4303 776.444 79.7149 776.013 78.7906C775.595 77.8663 775.386 76.7647 775.386 75.4859V68.8575H776.906V75.4859C776.906 77.0053 777.254 78.1892 777.95 79.0375C778.647 79.8732 779.691 80.291 781.084 80.291C782.477 80.291 783.515 79.8732 784.199 79.0375C784.895 78.1892 785.244 77.0053 785.244 75.4859V68.8575H786.763V75.4859C786.763 76.7647 786.548 77.8663 786.117 78.7906C785.699 79.7149 785.06 80.4303 784.199 80.9368C783.351 81.4432 782.312 81.6965 781.084 81.6965ZM794.387 70.2629V81.3926H792.886V70.2629H788.499V68.8575H798.812V70.2629H794.387ZM809.838 81.3926L808.09 77.5181H801.728L799.98 81.3926H798.385L804.083 68.8575H805.735L811.433 81.3926H809.838ZM807.521 76.2266L804.9 70.4529L802.317 76.2266H807.521Z" fill="#E3E4E3"/>
<path d="M994.86 70.2629V81.3926H993.36V70.2629H988.973V68.8575H999.285V70.2629H994.86ZM1004.62 81.3926V75.296L1000.18 68.8575H1001.85L1005.36 74.0235L1008.87 68.8575H1010.58L1006.12 75.296V81.3926H1004.62ZM1017.55 68.8575C1019.32 68.8575 1020.55 69.193 1021.22 69.8641C1021.89 70.5225 1022.22 71.4848 1022.22 72.751C1022.22 74.0045 1021.89 74.9668 1021.22 75.6378C1020.55 76.3089 1019.32 76.6444 1017.55 76.6444H1013.94V81.3926H1012.44V68.8575H1017.55ZM1013.94 70.168V75.3339H1017.38C1018.29 75.3339 1018.99 75.2263 1019.47 75.0111C1019.95 74.7832 1020.27 74.4856 1020.44 74.1184C1020.62 73.7512 1020.7 73.2954 1020.7 72.751C1020.7 72.2065 1020.62 71.7507 1020.44 71.3835C1020.27 71.0163 1019.95 70.7251 1019.47 70.5098C1018.99 70.2819 1018.29 70.168 1017.38 70.168H1013.94ZM1026.44 70.2629V74.1944H1032.79V75.5049H1026.44V79.9871H1033.55V81.3926H1024.94V68.8575H1033.17V70.2629H1026.44Z" fill="#E3E4E3"/>
<path d="M776.263 261.903V292.264H771.203V261.903H755.792V292.264H750.732V261.903L758.322 140.461H768.443L776.263 261.903ZM757.632 231.542H769.133L765.452 170.821H761.542L757.632 231.542ZM806.81 170.821V201.412L804.28 216.362L806.81 231.542V261.903L801.75 292.264H781.28V140.461H801.75L806.81 170.821ZM786.34 170.821V201.182H798.99C800.6 201.182 801.52 194.512 801.75 186.002C801.52 177.721 800.6 170.821 798.99 170.821H786.34ZM798.99 261.903C800.6 261.903 801.52 255.233 801.75 246.723C801.52 238.443 800.6 231.542 798.99 231.542H786.34V261.903H798.99ZM832.298 231.542H837.358V261.903L832.298 292.264H816.887L811.827 261.903V170.821L816.887 140.461H832.298L837.358 170.821V201.182H832.298V186.232C832.298 177.721 831.148 171.051 829.768 171.051H819.647C818.037 171.051 816.887 177.721 816.887 186.232V246.723C816.887 255.003 818.037 261.903 819.647 261.903H829.768C831.148 261.903 832.298 255.003 832.298 246.723V231.542ZM842.375 292.264V140.461H862.845L867.905 170.821V261.903L862.845 292.264H842.375ZM860.315 261.903C861.695 261.903 862.845 255.003 862.845 246.723V186.232C862.845 177.721 861.695 170.821 860.315 170.821H847.435V261.903H860.315ZM898.453 261.903V292.264H872.922V140.461H898.453V171.051H877.982V201.182H893.393V231.542H877.982V261.903H898.453ZM908.53 292.264H903.47V140.461H929V171.051H908.53V201.182H923.94V231.542H908.53V292.264ZM960.002 216.362V261.903L954.712 292.264H939.532L934.242 261.903V170.821L939.532 140.461H954.712L960.002 170.821V201.182H954.712V186.232C954.712 177.721 953.562 171.051 952.182 171.051H942.062C940.682 171.051 939.532 177.721 939.532 186.232V246.723C939.532 255.003 940.682 261.903 942.062 261.903H952.182C953.562 261.903 954.712 255.233 954.712 246.953V246.723H947.122V216.362H960.002ZM969.849 292.264H964.789V140.461H969.849V201.182H985.26V140.461H990.32V292.264H985.26V231.542H969.849V292.264ZM1020.87 292.264H995.337V261.903H1005.69V170.821H995.337V140.461H1020.87V170.821H1010.75V261.903H1020.87V292.264ZM753.952 311.461H776.263V432.903L771.203 463.264H755.792L750.732 432.903V402.542H755.792V417.723C755.792 426.233 756.942 432.903 758.322 432.903H768.673C770.053 432.903 771.203 426.233 771.203 417.723V341.821H753.952V311.461ZM806.81 311.461L798.3 387.362L806.81 463.264H801.06L794.16 402.542H786.34V463.264H781.28V311.461H786.34V372.182H794.16L801.06 311.461H806.81ZM811.827 311.461H816.887V432.673H837.358V463.264H811.827V311.461ZM862.845 463.264V341.821H861.465L857.785 432.903H852.495L848.815 341.821H847.435V463.264H842.375V311.461H852.495L855.025 372.182L857.555 311.461H867.905V463.264H862.845ZM898.453 311.461V463.264H888.332L880.282 341.821H878.212V463.264H872.922V311.461H883.272L891.323 432.903H893.393V311.461H898.453ZM923.94 311.461L929 341.821V432.903L923.94 463.264H908.53L903.47 432.903V341.821L908.53 311.461H923.94ZM923.94 357.232C923.94 348.721 922.79 341.821 921.41 341.821H911.06C909.68 341.821 908.53 348.721 908.53 357.232V417.723C908.53 426.003 909.68 432.903 911.06 432.903H921.41C922.79 432.903 923.94 426.003 923.94 417.723V357.232ZM959.548 372.412L954.488 402.542H939.077V463.264H934.017V311.461H954.488L959.548 341.821V372.412ZM939.077 342.051V372.182H952.188C953.568 372.182 954.488 365.512 954.488 357.002C954.488 348.721 953.568 342.051 952.188 342.051H939.077ZM985.035 311.461L990.095 341.821V432.903L985.035 463.264H979.975V486.264H974.915V463.264H969.625L964.565 432.903V341.821L969.625 311.461H985.035ZM985.035 357.232C985.035 348.721 983.885 341.821 982.505 341.821H972.155C970.775 341.821 969.625 348.721 969.625 357.232V417.723C969.625 426.003 970.775 432.903 972.155 432.903H974.915V404.152H979.975V432.903H982.505C983.885 432.903 985.035 426.003 985.035 417.723V357.232ZM1020.64 372.412L1015.58 402.772V433.133H1020.64V463.264H1010.52V402.772H1000.17V463.264H995.112V311.461H1015.58L1020.64 342.051V372.412ZM1000.17 342.051V372.412H1013.05C1014.43 372.412 1015.58 365.512 1015.58 357.232C1015.58 348.721 1014.43 342.051 1013.05 342.051H1000.17ZM758.322 513.821C756.942 513.821 755.792 520.721 755.792 529.002C755.792 537.512 756.942 544.182 758.322 544.182H771.203L776.263 574.542V604.903L771.203 635.264H755.792L750.732 604.903V589.493H755.792C755.792 598.003 756.942 604.903 758.322 604.903H768.443C770.053 604.903 771.203 598.233 771.203 589.723C771.203 581.443 770.053 574.542 768.443 574.542H755.792L750.732 544.182V513.821L755.792 483.461H771.203L776.263 513.821V529.002L771.203 529.232C771.203 520.721 770.053 513.821 768.673 513.821H758.322ZM806.81 514.051H796.46V635.264H791.4V514.051H781.28V483.461H806.81V514.051ZM832.298 483.461H837.358V604.903L832.298 635.264H816.887L811.827 604.903V483.461H816.887V589.723C816.887 598.003 818.037 604.903 819.417 604.903H829.768C831.148 604.903 832.298 598.003 832.298 589.723V483.461ZM867.905 483.461V513.821L860.315 635.264H849.965L842.375 513.821V483.461H847.435V513.821L853.185 604.903H857.095L862.845 513.821V483.461H867.905ZM898.453 483.461V574.542L893.163 635.264H888.102L885.572 604.903L883.042 635.264H877.982L872.922 574.542V483.461H877.982V574.542L880.512 604.903L883.042 574.542V513.821H888.102V574.542L890.633 604.903L893.163 574.542V483.461H898.453ZM923.48 513.821L918.88 559.362L923.48 604.903H929V635.264H921.41L916.12 584.663L911.06 635.264H903.47V604.903H908.99L913.59 559.362L908.99 513.821H903.47V483.461H911.06L916.12 534.062L921.41 483.461H929V513.821H923.48ZM959.548 483.461L949.427 574.772V635.264H944.367V574.772L934.017 483.461H939.077L946.897 552.002L954.488 483.461H959.548ZM990.095 513.821L970.085 604.903H990.095V635.264H964.565V604.903L984.575 513.821H964.565V483.461H990.095V513.821Z" fill="#E3E4E3"/>
</svg>
